<svg width="36" height="36" viewBox="0 0 36 36" fill="none" xmlns="http://www.w3.org/2000/svg">
<path d="M11.5 7.19951V11V21C11.5 21.5523 11.9477 22 12.5 22H15C15.5523 22 16 22.4477 16 23V23.1802C16 23.6569 15.6635 24.0673 15.1961 24.1608L8.4029 25.5194C7.33106 25.7338 7.33105 27.2662 8.4029 27.4806L15.5583 28.9117C15.8151 28.963 16 29.1885 16 29.4505C16 29.754 16.246 30 16.5495 30H22.5C23.0523 30 23.5 29.5523 23.5 29V23C23.5 22.4477 23.9477 22 24.5 22H27.5C28.0523 22 28.5 21.5523 28.5 21V11V7.11803C28.5 6.37465 27.7177 5.89116 27.0528 6.22361L23.7111 7.89443C23.5723 7.96385 23.4192 8 23.2639 8H16.2591C16.0892 8 15.922 7.95669 15.7735 7.87416L12.9856 6.32536C12.3191 5.95506 11.5 6.43703 11.5 7.19951Z" stroke="#FFF700" stroke-width="2"/>
</svg>
