<svg width="72" height="72" viewBox="0 0 72 72" fill="none" xmlns="http://www.w3.org/2000/svg">
<path class="logo-angel" d="M15 45.7594C15 34.1652 25.2039 24.5188 35.8633 24.5188V7.89027C35.8633 6.09981 38.0355 5.21145 39.2902 6.48879L53.6589 21.1174C54.9015 22.3824 54.0053 24.5188 52.2321 24.5188H35.8633V44.6219C35.8633 45.3272 36.2348 45.9804 36.841 46.3409L51.2874 54.9324C52.6111 55.7197 52.5856 57.6449 51.2415 58.3968L36.3184 66.7454C36.02 66.9124 35.6819 67.0018 35.3401 66.994C23.8413 66.7313 15 57.8206 15 45.7594Z" fill="#FFF700"/>
<path class="logo-angel" d="M35.8633 24.5188C25.2039 24.5188 15 34.1652 15 45.7594C15 57.8206 23.8413 66.7313 35.3401 66.994C35.6819 67.0018 36.02 66.9124 36.3184 66.7454L51.2415 58.3968C52.5856 57.6449 52.6111 55.7197 51.2874 54.9324L36.841 46.3409C36.2348 45.9804 35.8633 45.3272 35.8633 44.6219V24.5188ZM35.8633 24.5188H52.2321C54.0053 24.5188 54.9015 22.3824 53.6589 21.1174L39.2902 6.48879C38.0355 5.21145 35.8633 6.09981 35.8633 7.89027V24.5188Z" stroke="#FFFF82"/>
</svg>
