<svg width="32" height="32" viewBox="0 0 32 32" fill="none" xmlns="http://www.w3.org/2000/svg">
<path d="M16.3514 13.7253C12.2669 13.5661 9.31495 11.0654 8.34953 9.83496C6.93853 12.1511 8.529 14.1295 9.50061 14.8291C9.11444 14.8725 8.18863 14.5818 7.77399 14.431C7.90766 16.9788 9.90905 17.9655 10.893 18.1405C10.3583 18.2997 9.54393 18.2913 9.20355 18.2671C9.88677 20.3227 11.877 20.8366 12.7867 20.8366C11.0787 22.371 8.25051 22.5616 7.04993 22.4651C10.7816 24.6365 16.537 25.0708 20.6401 21.1985C23.3184 18.2586 23.9327 16.3841 24.0933 12.8025C25.1478 12.0642 25.7704 11.2162 25.9499 10.8845C25.4894 11.145 24.347 11.3549 23.8334 11.4273C24.7839 10.9351 25.3186 9.85909 25.4671 9.38259C24.9176 9.77344 23.6044 10.1486 23.0165 10.2873C22.0686 9.40661 21.4145 9.1747 20.1016 9.07498C17.3354 9.23783 15.9615 11.2644 16.3514 13.7253Z" fill="#F8FBFF"/>
</svg>
